<svg width="15" height="11" viewBox="0 0 15 11" fill="none" xmlns="http://www.w3.org/2000/svg">
<path d="M4.61538 5.95832H5.7L5.19231 4.43625L4.61538 5.95832ZM10.3038 5.5C10.1644 5.49888 10.0278 5.53841 9.91125 5.61358C9.79475 5.68874 9.70364 5.79616 9.64948 5.92219C9.59532 6.04823 9.58056 6.1872 9.60706 6.32147C9.63356 6.45575 9.70014 6.57928 9.79834 6.67639C9.89654 6.7735 10.0219 6.83981 10.1586 6.8669C10.2953 6.894 10.4371 6.88067 10.5661 6.82859C10.695 6.77651 10.8053 6.68804 10.8829 6.5744C10.9605 6.46076 11.0019 6.32707 11.0019 6.1903C11.0019 6.0082 10.9286 5.83347 10.7978 5.70417C10.6671 5.57488 10.4895 5.50149 10.3038 5.5V5.5ZM13.575 0.000186306H1.425C1.23896 -0.00281751 1.05418 0.0305285 0.881418 0.0982803C0.708656 0.166032 0.551373 0.266834 0.418739 0.394811C0.286104 0.522787 0.180771 0.675378 0.108879 0.843687C0.0369871 1.012 -2.51966e-05 1.19266 1.28691e-08 1.37514V9.62486C1.28691e-08 9.98952 0.147702 10.3392 0.410614 10.5971C0.673526 10.855 1.03011 10.9998 1.40192 10.9998H13.575C13.761 11.0028 13.9458 10.9695 14.1186 10.9017C14.2913 10.834 14.4486 10.7332 14.5813 10.6052C14.7139 10.4772 14.8192 10.3246 14.8911 10.1563C14.963 9.988 15 9.80734 15 9.62486V1.37514C15 1.19266 14.963 1.012 14.8911 0.843687C14.8192 0.675378 14.7139 0.522787 14.5813 0.394811C14.4486 0.266834 14.2913 0.166032 14.1186 0.0982803C13.9458 0.0305285 13.761 -0.00281751 13.575 0.000186306V0.000186306ZM7.34423 8.24991H6.84808C6.75102 8.24982 6.65633 8.22046 6.57686 8.1658C6.49739 8.11114 6.43699 8.03383 6.40385 7.94436L6.19038 7.33327H4.13654L3.92308 7.94436C3.88993 8.03383 3.82953 8.11114 3.75006 8.1658C3.6706 8.22046 3.57591 8.24982 3.47885 8.24991H2.98269C2.90811 8.24957 2.8347 8.23174 2.76858 8.19789C2.70246 8.16405 2.64557 8.11517 2.60264 8.05535C2.55972 7.99553 2.53202 7.9265 2.52186 7.85404C2.5117 7.78158 2.51937 7.70778 2.54423 7.63882L4.11346 3.2367C4.16133 3.10143 4.2509 2.98411 4.36977 2.90098C4.48864 2.81785 4.63093 2.77303 4.77692 2.77273H5.55C5.696 2.77303 5.83828 2.81785 5.95715 2.90098C6.07602 2.98411 6.16559 3.10143 6.21346 3.2367L7.78269 7.66145C7.80313 7.72907 7.80737 7.8004 7.7951 7.86989C7.78283 7.93938 7.75438 8.00516 7.71195 8.0621C7.66952 8.11904 7.61427 8.16561 7.55049 8.19819C7.48671 8.23076 7.41612 8.24846 7.34423 8.24991V8.24991ZM12.4038 7.79159C12.4038 7.91314 12.3546 8.02972 12.267 8.11567C12.1793 8.20162 12.0605 8.24991 11.9365 8.24991H11.475C11.4076 8.25017 11.3409 8.23556 11.28 8.20716C11.2191 8.17876 11.1654 8.13729 11.1231 8.08582C10.8643 8.19487 10.5855 8.25072 10.3038 8.24991C10.0184 8.26457 9.73295 8.2221 9.4648 8.12508C9.19666 8.02805 8.95146 7.87851 8.74414 7.68555C8.53682 7.4926 8.37172 7.26027 8.2589 7.00272C8.14608 6.74517 8.08789 6.46779 8.08789 6.18748C8.08789 5.90716 8.14608 5.62978 8.2589 5.37223C8.37172 5.11468 8.53682 4.88235 8.74414 4.6894C8.95146 4.49644 9.19666 4.3469 9.4648 4.24987C9.73295 4.15285 10.0184 4.11038 10.3038 4.12505C10.542 4.12816 10.7779 4.17023 11.0019 4.24953V3.2367C11.0034 3.11463 11.054 2.99807 11.1425 2.91227C11.2311 2.82648 11.3505 2.77838 11.475 2.77838H11.9365C12.0605 2.77838 12.1793 2.82667 12.267 2.91262C12.3546 2.99857 12.4038 3.11515 12.4038 3.2367V7.79159Z" fill="#7F3DFF"/>
</svg>
