<svg width="15" height="18" viewBox="0 0 15 18" fill="none" xmlns="http://www.w3.org/2000/svg">
<path fill-rule="evenodd" clip-rule="evenodd" d="M0 2.25C0 1.00736 1.00736 0 2.25 0H12.75C13.9926 0 15 1.00736 15 2.25V17.25C15 17.5266 14.8478 17.7807 14.6039 17.9113C14.36 18.0418 14.0641 18.0275 13.834 17.874L12 16.6514L10.166 17.874C9.9141 18.042 9.5859 18.042 9.33398 17.874L7.5 16.6514L5.66603 17.874C5.4141 18.042 5.0859 18.042 4.83397 17.874L3 16.6514L1.16602 17.874C0.935883 18.0275 0.639974 18.0418 0.396106 17.9113C0.152238 17.7807 0 17.5266 0 17.25V2.25ZM3.75 7.5C3.33579 7.5 3 7.83579 3 8.25C3 8.66421 3.33579 9 3.75 9L11.25 9C11.6642 9 12 8.66421 12 8.25C12 7.83579 11.6642 7.5 11.25 7.5L3.75 7.5ZM5.25 5.25C5.25 4.83579 5.58579 4.5 6 4.5H9C9.41421 4.5 9.75 4.83579 9.75 5.25C9.75 5.66421 9.41421 6 9 6H6C5.58579 6 5.25 5.66421 5.25 5.25ZM5.25 10.5C4.83579 10.5 4.5 10.8358 4.5 11.25C4.5 11.6642 4.83579 12 5.25 12H9.75C10.1642 12 10.5 11.6642 10.5 11.25C10.5 10.8358 10.1642 10.5 9.75 10.5H5.25Z" fill="#7F3DFF"/>
</svg>
