<svg width="12" height="10" viewBox="0 0 12 10" fill="none" xmlns="http://www.w3.org/2000/svg">
<path d="M0.0149138 4.15168H3.03533L5.49194 10C5.3962 9.94723 5.3071 9.87842 5.22868 9.79355L0.0149138 4.15168Z" fill="#7F3DFF"/>
<path d="M0 3.11376L2.30215 0.373459C2.50095 0.136821 2.79544 0 3.10598 0H4.05339L3.00703 3.11376H0Z" fill="#7F3DFF"/>
<path d="M5.15634 0L4.10998 3.11376H7.89002L6.84366 0H5.15634Z" fill="#7F3DFF"/>
<path d="M7.94661 0L8.99297 3.11376H12L9.69785 0.373459C9.49905 0.136821 9.20456 0 8.89402 0H7.94661Z" fill="#7F3DFF"/>
<path d="M11.9851 4.15168H8.96467L6.50806 10C6.6038 9.94723 6.6929 9.87842 6.77132 9.79355L11.9851 4.15168Z" fill="#7F3DFF"/>
<path d="M6 8.51093L4.16888 4.15168H7.83112L6 8.51093Z" fill="#7F3DFF"/>
</svg>
