<svg width="16" height="15" viewBox="0 0 16 15" fill="none" xmlns="http://www.w3.org/2000/svg">
<path d="M6.20068 7.84392C8.02451 7.84392 9.50771 6.36071 9.50771 4.53689C9.50771 2.71306 8.02451 1.22986 6.20068 1.22986C4.37685 1.22986 2.89365 2.71306 2.89365 4.53689C2.89365 6.36071 4.37685 7.84392 6.20068 7.84392ZM7.44082 8.67067H4.96054C2.2248 8.67067 0 10.8955 0 13.6312V13.6312C0 14.0878 0.370152 14.458 0.826757 14.458H11.5746C12.0312 14.458 12.4014 14.0878 12.4014 13.6312V13.6312C12.4014 10.8955 10.1766 8.67067 7.44082 8.67067Z" fill="#7F3DFF"/>
<path d="M12.0741 7.05684C12.5776 6.19874 12.7951 5.20268 12.695 4.21279C12.5728 2.99485 11.99 1.8936 11.0328 1.04451C10.6914 0.741688 10.1732 0.85022 9.92093 1.23052V1.23052C9.6686 1.61095 9.78172 2.11722 10.1036 2.44094C10.6477 2.98825 10.9773 3.65626 11.0498 4.37815C11.0947 4.82964 11.0385 5.28548 10.8852 5.71252C10.7319 6.13956 10.4854 6.52706 10.1635 6.84684V6.84684C9.71953 7.29079 9.91327 8.0482 10.5157 8.22505V8.22505C12.9599 8.94123 13.7164 10.8743 13.9504 11.9867C14.0444 12.4335 14.4252 12.8045 14.8818 12.8045V12.8045C15.3384 12.8045 15.7107 12.433 15.6401 11.9818C15.3965 10.4238 14.4548 8.21052 12.0741 7.05684Z" fill="#7F3DFF"/>
</svg>
