<svg width="18" height="18" viewBox="0 0 18 18" fill="none" xmlns="http://www.w3.org/2000/svg">
<path fill-rule="evenodd" clip-rule="evenodd" d="M0 3.75C0 1.67893 1.67893 0 3.75 0H14.25C16.3211 0 18 1.67893 18 3.75V14.25C18 16.3211 16.3211 18 14.25 18H3.75C1.67893 18 0 16.3211 0 14.25V3.75ZM14.8262 6.48016C15.0913 6.16195 15.0483 5.68903 14.7301 5.42385C14.4119 5.15868 13.939 5.20167 13.6738 5.51988L10.38 9.4725L7.95 7.65002C7.65141 7.42608 7.23359 7.45577 6.96967 7.71969L3.21967 11.4697C2.92678 11.7626 2.92678 12.2375 3.21967 12.5303C3.51256 12.8232 3.98744 12.8232 4.28033 12.5303L7.57038 9.2403L10.05 11.1C10.3694 11.3396 10.8205 11.2869 11.0762 10.9802L14.8262 6.48016Z" fill="#7F3DFF"/>
</svg>
