<svg width="16" height="18" viewBox="0 0 16 18" fill="none" xmlns="http://www.w3.org/2000/svg">
<path d="M7.65552 0C5.17024 0 3.15552 2.01472 3.15552 4.5C3.15552 6.98528 5.17024 9 7.65552 9C10.1408 9 12.1555 6.98528 12.1555 4.5C12.1555 2.01472 10.1408 0 7.65552 0Z" fill="#7F3DFF"/>
<path d="M12.1555 10.5L3.15552 10.5C2.12326 10.5 1.14321 10.9465 0.552475 11.6693C-0.0691543 12.43 -0.241151 13.4973 0.428679 14.4874C1.86624 16.6122 4.62591 18 7.65552 18C10.6851 18 13.4448 16.6122 14.8824 14.4874C15.5522 13.4973 15.3802 12.43 14.7586 11.6693C14.1678 10.9465 13.1878 10.5 12.1555 10.5Z" fill="#7F3DFF"/>
</svg>
